<?xml version="1.0" standalone="no"?><!DOCTYPE svg PUBLIC "-//W3C//DTD SVG 1.1//EN" "http://www.w3.org/Graphics/SVG/1.1/DTD/svg11.dtd"><svg t="1715828308038" class="icon" viewBox="0 0 1024 1024" version="1.1" xmlns="http://www.w3.org/2000/svg" p-id="3771" xmlns:xlink="http://www.w3.org/1999/xlink" width="200" height="200"><path d="M512 512m-481.882353 0a481.882353 481.882353 0 1 0 963.764706 0 481.882353 481.882353 0 1 0-963.764706 0Z" fill="#FFFFFF" p-id="3772"></path><path d="M512 1024a512 512 0 1 1 512-512 512.602353 512.602353 0 0 1-512 512z m0-963.764706a451.764706 451.764706 0 1 0 451.764706 451.764706 452.246588 452.246588 0 0 0-451.764706-451.764706z" fill="#F1F4F6" p-id="3773"></path><path d="M738.183529 496.880941c0-77.221647 0.421647-154.443294 0-231.604706 0-20.961882 5.12-29.394824 27.105883-21.263059a169.261176 169.261176 0 0 0 42.827294 10.721883c27.286588 2.469647 35.719529 15.661176 35.478588 42.646588q-1.807059 201.667765 0 403.576471c0 24.696471-7.228235 36.803765-31.623529 40.417882a397.914353 397.914353 0 0 0-53.067294 12.830118c-17.287529 5.12-20.901647-1.626353-20.781177-17.769412 0.602353-79.811765 0-159.623529 0-239.435294z" fill="#7CDED7" p-id="3774"></path><path d="M241.302588 497.543529c0-71.017412 0.542118-142.034824-0.361412-212.992 0-17.648941 5.360941-20.720941 21.38353-17.167058 85.955765 19.456 86.016 19.215059 86.016 107.279058 0 101.315765-0.602353 202.631529 0.481882 303.947295 0 22.588235-7.469176 33.189647-29.274353 37.044705-20.419765 3.734588-40.417882 9.697882-60.235294 15.179295-14.095059 3.855059-18.070588-0.843294-18.070588-15.23953 0.421647-72.704 0.060235-145.408 0.060235-218.051765z" fill="#3156C2" p-id="3775"></path><path d="M680.839529 543.442824c0 37.285647-0.361412 74.511059 0 111.796705 0 18.070588-6.445176 26.322824-25.178353 20.299295a9.637647 9.637647 0 0 1-2.529882-0.602353c-99.508706-27.346824-79.088941-2.831059-81.257412-100.23153-0.903529-40.719059 0-81.438118-0.361411-122.157176a25.118118 25.118118 0 0 1 24.69647-29.756236 441.584941 441.584941 0 0 0 50.416941-12.769882c31.141647-8.493176 33.912471-6.565647 34.093177 26.804706 0.361412 35.538824 0.180706 71.077647 0.12047 106.616471z" fill="#2CCAD6" p-id="3776"></path><path d="M404.058353 606.689882c0-37.225412 0.421647-74.450824 0-111.676235-0.301176-20.419765 7.830588-26.985412 27.105882-20.118588 5.722353 2.048 11.625412 3.433412 17.528471 4.939294 69.692235 18.070588 61.138824 2.048 61.620706 81.498353 0 44.995765-0.542118 90.051765 0 135.047529a27.527529 27.527529 0 0 1-22.467765 31.804236 26.684235 26.684235 0 0 1-3.072 0.361411 527.962353 527.962353 0 0 0-55.235765 14.576942c-18.432 5.601882-25.780706-0.662588-25.6-19.516236 0.481882-38.912 0-77.884235 0-116.85647z" fill="#348EDA" p-id="3777"></path></svg>