<?xml version="1.0" standalone="no"?><!DOCTYPE svg PUBLIC "-//W3C//DTD SVG 1.1//EN" "http://www.w3.org/Graphics/SVG/1.1/DTD/svg11.dtd"><svg t="1690549234207" class="icon" viewBox="0 0 1024 1024" version="1.1" xmlns="http://www.w3.org/2000/svg" p-id="4427" xmlns:xlink="http://www.w3.org/1999/xlink" width="200" height="200"><path d="M0 107.2l137.6 817.6L704 1024 878.4 137.6 568 17.6l-150.4 80L256 1.6 0 107.2z" fill="#07C3F2" p-id="4428"></path><path d="M878.4 137.6L704 1024 137.6 924.8 878.4 137.6z" fill="#C793F3" p-id="4429"></path><path d="M878.4 137.6L137.6 924.8 0 107.2 256 1.6l161.6 96 150.4-80 310.4 120z" fill="#0793F3" p-id="4430"></path><path d="M941.28 144L281.6 355.2 652.8 0l238.4 20.8L941.28 144z" fill="#FCF84A" p-id="4431"></path><path d="M912 464l112 209.6L568 944l-187.2-129.6-99.2-459.2L941.28 144 1024 347.2 912 464z" fill="#0793F3" p-id="4432"></path><path d="M819.2 297.6L912 464l112-116.8L942.4 144l-123.2 153.6z" fill="#07C3F2" p-id="4433"></path><path d="M192 832h640V192H192v640z" p-id="4434"></path><path d="M566.88 504.48l35.2-42.24a123.84 123.84 0 0 0 80.96 32.8c24.32 0 39.04-9.6 39.04-25.44v-0.8c0-15.04-9.28-22.88-54.56-34.4-54.56-13.92-89.92-29.12-89.92-82.88 0-49.12 39.52-81.76 94.88-81.76a158.08 158.08 0 0 1 100.8 34.24l-31.04 44.96A128 128 0 0 0 672 321.6c-22.88 0-34.88 10.4-34.88 23.68v0.8c0 17.76 11.52 23.68 58.4 35.52 55.04 14.4 85.92 34.08 85.92 81.44 0 53.92-40.96 84-99.52 84a172.48 172.48 0 0 1-114.88-43.2M516.32 272l-39.52 154.88L431.52 272h-44.96l-45.28 154.88L301.92 272H240l75.84 272h49.76l43.52-153.6 42.88 153.6h50.4l75.68-272h-61.76zM256 752h240v-40H256V752z" fill="#FFFFFF" p-id="4435"></path></svg>